<svg width="200" height="200" viewBox="0 0 200 200" fill="none" xmlns="http://www.w3.org/2000/svg">
  <rect width="200" height="200" fill="white" stroke="#e5e7eb" stroke-width="2"/>
  
  <!-- QR Code Pattern -->
  <g fill="#000000">
    <!-- Corner squares -->
    <rect x="10" y="10" width="30" height="30"/>
    <rect x="160" y="10" width="30" height="30"/>
    <rect x="10" y="160" width="30" height="30"/>
    
    <!-- Inner corner squares -->
    <rect x="15" y="15" width="20" height="20" fill="white"/>
    <rect x="165" y="15" width="20" height="20" fill="white"/>
    <rect x="15" y="165" width="20" height="20" fill="white"/>
    
    <!-- Center squares -->
    <rect x="20" y="20" width="10" height="10"/>
    <rect x="170" y="20" width="10" height="10"/>
    <rect x="20" y="170" width="10" height="10"/>
    
    <!-- Sample QR pattern -->
    <rect x="50" y="10" width="5" height="5"/>
    <rect x="60" y="10" width="5" height="5"/>
    <rect x="70" y="10" width="5" height="5"/>
    <rect x="90" y="10" width="5" height="5"/>
    <rect x="100" y="10" width="5" height="5"/>
    <rect x="120" y="10" width="5" height="5"/>
    <rect x="140" y="10" width="5" height="5"/>
    
    <rect x="10" y="50" width="5" height="5"/>
    <rect x="50" y="50" width="5" height="5"/>
    <rect x="70" y="50" width="5" height="5"/>
    <rect x="90" y="50" width="5" height="5"/>
    <rect x="110" y="50" width="5" height="5"/>
    <rect x="130" y="50" width="5" height="5"/>
    <rect x="150" y="50" width="5" height="5"/>
    <rect x="170" y="50" width="5" height="5"/>
    <rect x="190" y="50" width="5" height="5"/>
    
    <!-- More pattern elements -->
    <rect x="50" y="70" width="5" height="5"/>
    <rect x="70" y="70" width="5" height="5"/>
    <rect x="90" y="70" width="5" height="5"/>
    <rect x="110" y="70" width="5" height="5"/>
    <rect x="130" y="70" width="5" height="5"/>
    <rect x="150" y="70" width="5" height="5"/>
    
    <!-- Center finder pattern -->
    <rect x="85" y="85" width="30" height="30"/>
    <rect x="90" y="90" width="20" height="20" fill="white"/>
    <rect x="95" y="95" width="10" height="10"/>
  </g>
  
  <!-- UPI Text -->
  <text x="100" y="220" text-anchor="middle" fill="#6b7280" font-family="Arial, sans-serif" font-size="12" font-weight="500">
    UPI Payment QR Code
  </text>
</svg>
